<svg width="800" height="400" viewBox="0 0 800 400" xmlns="http://www.w3.org/2000/svg">
  <defs>
    <linearGradient id="backgroundGradient" x1="0%" y1="0%" x2="100%" y2="100%">
      <stop offset="0%" style="stop-color:#4CAF50;stop-opacity:1" />
      <stop offset="100%" style="stop-color:#2E7D32;stop-opacity:1" />
    </linearGradient>
    <linearGradient id="youthGradient" x1="0%" y1="0%" x2="0%" y2="100%">
      <stop offset="0%" style="stop-color:#FF9800;stop-opacity:1" />
      <stop offset="100%" style="stop-color:#F57C00;stop-opacity:1" />
    </linearGradient>
  </defs>
  
  <!-- Background -->
  <rect width="800" height="400" fill="url(#backgroundGradient)"/>
  
  <!-- Modern office building -->
  <rect x="600" y="150" width="150" height="200" fill="#37474F" stroke="#263238" stroke-width="2"/>
  
  <!-- Windows pattern -->
  <g fill="#81C784">
    <rect x="620" y="170" width="20" height="25"/>
    <rect x="650" y="170" width="20" height="25"/>
    <rect x="680" y="170" width="20" height="25"/>
    <rect x="710" y="170" width="20" height="25"/>
    
    <rect x="620" y="210" width="20" height="25"/>
    <rect x="650" y="210" width="20" height="25"/>
    <rect x="680" y="210" width="20" height="25"/>
    <rect x="710" y="210" width="20" height="25"/>
    
    <rect x="620" y="250" width="20" height="25"/>
    <rect x="650" y="250" width="20" height="25"/>
    <rect x="680" y="250" width="20" height="25"/>
    <rect x="710" y="250" width="20" height="25"/>
    
    <rect x="620" y="290" width="20" height="25"/>
    <rect x="650" y="290" width="20" height="25"/>
    <rect x="680" y="290" width="20" height="25"/>
    <rect x="710" y="290" width="20" height="25"/>
  </g>
  
  <!-- Young entrepreneurs -->
  <!-- Person 1 -->
  <circle cx="200" cy="250" r="25" fill="#D4A574"/>
  <rect x="185" y="275" width="30" height="50" fill="#2196F3"/>
  <rect x="180" y="325" width="40" height="25" fill="#795548"/>
  <rect x="240" y="240" width="60" height="8" rx="4" fill="#FFD700"/>
  <text x="245" y="246" font-family="Arial" font-size="6" fill="#000">YOUNG4CHICKS</text>
  
  <!-- Person 2 -->
  <circle cx="350" cy="260" r="22" fill="#C49B7A"/>
  <rect x="338" y="282" width="24" height="45" fill="#9C27B0"/>
  <rect x="335" y="327" width="30" height="23" fill="#424242"/>
  
  <!-- Person 3 -->
  <circle cx="120" cy="270" r="20" fill="#E6B887"/>
  <rect x="108" y="290" width="24" height="40" fill="#FF5722"/>
  <rect x="105" y="330" width="30" height="20" fill="#3E2723"/>
  
  <!-- Money/success symbols -->
  <g fill="#FFD700" stroke="#FFA000" stroke-width="1">
    <circle cx="450" cy="150" r="15"/>
    <text x="450" y="155" text-anchor="middle" font-family="Arial" font-size="14" font-weight="bold">₦</text>
    
    <circle cx="500" cy="180" r="12"/>
    <text x="500" y="185" text-anchor="middle" font-family="Arial" font-size="11" font-weight="bold">$</text>
    
    <circle cx="420" cy="200" r="10"/>
    <text x="420" y="205" text-anchor="middle" font-family="Arial" font-size="9" font-weight="bold">₦</text>
  </g>
  
  <!-- Upward arrows (growth) -->
  <g fill="#4CAF50" stroke="#388E3C" stroke-width="2">
    <polygon points="300,120 320,100 340,120 330,120 330,140 310,140 310,120"/>
    <polygon points="400,100 420,80 440,100 430,100 430,120 410,120 410,100"/>
    <polygon points="520,140 540,120 560,140 550,140 550,160 530,160 530,140"/>
  </g>
  
  <!-- Age range indicator -->
  <rect x="50" y="50" width="200" height="60" rx="10" fill="rgba(255,255,255,0.9)" stroke="#FF9800" stroke-width="3"/>
  <text x="150" y="75" text-anchor="middle" font-family="Arial" font-size="18" font-weight="bold" fill="#FF9800">
    AGE 18-30
  </text>
  <text x="150" y="95" text-anchor="middle" font-family="Arial" font-size="12" fill="#666">
    Youth Empowerment Zone
  </text>
  
  <!-- Chick silhouettes in background -->
  <g fill="rgba(255,255,255,0.2)">
    <ellipse cx="80" cy="350" rx="8" ry="6"/>
    <circle cx="80" cy="345" r="5"/>
    
    <ellipse cx="150" cy="360" rx="6" ry="5"/>
    <circle cx="150" cy="356" r="4"/>
    
    <ellipse cx="220" cy="355" rx="7" ry="5"/>
    <circle cx="220" cy="351" r="4"/>
  </g>
  
  <!-- Text overlay -->
  <rect x="0" y="340" width="800" height="60" fill="rgba(0,0,0,0.8)"/>
  <text x="400" y="365" text-anchor="middle" font-family="Arial, sans-serif" font-size="24" font-weight="bold" fill="#FFFFFF">
    Youth Empowerment Program
  </text>
  <text x="400" y="385" text-anchor="middle" font-family="Arial, sans-serif" font-size="16" fill="#F8F9FA">
    Building wealth and creating opportunities for urban youth aged 18-30
  </text>
</svg>
